<svg preserveAspectRatio="none" overflow="visible" style="display: block;" width="64.9911" height="48.4071" viewBox="0 0 64.9911 48.4071" fill="none" xmlns="http://www.w3.org/2000/svg">
<g id="Badge" filter="url(#filter0_dd_0_51)">
<rect x="9.18839" y="4.70625" width="46.6143" height="30.0304" rx="5.37857" fill="white"/>
<rect x="9.07634" y="4.5942" width="46.8384" height="30.2545" rx="5.49062" stroke="#D6DCE5" stroke-width="0.224107"/>
<g id="Paypal">
<path fill-rule="evenodd" clip-rule="evenodd" d="M19.3855 15.3523H16.6981C16.5141 15.3523 16.3577 15.4859 16.3291 15.6674L15.2421 22.5581C15.2205 22.6941 15.3258 22.8167 15.4637 22.8167H16.7468C16.9307 22.8167 17.0871 22.683 17.1158 22.5012L17.4089 20.6427C17.4372 20.4607 17.594 20.3272 17.7775 20.3272H18.6283C20.3987 20.3272 21.4203 19.4706 21.6873 17.7732C21.8075 17.0306 21.6924 16.4471 21.3445 16.0383C20.9626 15.5897 20.285 15.3523 19.3855 15.3523ZM19.6956 17.869C19.5487 18.8333 18.8118 18.8333 18.0994 18.8333H17.6938L17.9783 17.0324C17.9952 16.9237 18.0895 16.8435 18.1996 16.8435H18.3855C18.8708 16.8435 19.3286 16.8435 19.5652 17.1201C19.7062 17.2852 19.7494 17.5303 19.6956 17.869ZM27.4191 17.8381H26.1321C26.0225 17.8381 25.9277 17.9183 25.9108 18.0272L25.8539 18.3871L25.7639 18.2567C25.4853 17.8523 24.8641 17.7172 24.244 17.7172C22.8217 17.7172 21.6071 18.7942 21.3705 20.305C21.2475 21.0586 21.4223 21.7792 21.8498 22.2817C22.2421 22.7438 22.8033 22.9363 23.4709 22.9363C24.6168 22.9363 25.2523 22.1996 25.2523 22.1996L25.1949 22.5572C25.1732 22.694 25.2785 22.8165 25.4156 22.8165H26.575C26.7594 22.8165 26.9148 22.6829 26.9439 22.501L27.6395 18.0967C27.6615 17.9612 27.5566 17.8381 27.4191 17.8381ZM25.6251 20.3427C25.5009 21.0778 24.9174 21.5713 24.1732 21.5713C23.7995 21.5713 23.5007 21.4515 23.309 21.2244C23.1188 20.9989 23.0464 20.6778 23.107 20.3203C23.223 19.5913 23.8164 19.0818 24.5493 19.0818C24.9146 19.0818 25.2118 19.2031 25.4075 19.4322C25.6035 19.6637 25.6813 19.9866 25.6251 20.3427ZM32.98 17.8379H34.2734C34.4545 17.8379 34.5602 18.041 34.4572 18.1896L30.1558 24.3977C30.0862 24.4983 29.9714 24.5581 29.8489 24.5581H28.5572C28.3753 24.5581 28.2691 24.3534 28.3744 24.2044L29.7138 22.3141L28.2893 18.1341C28.24 17.9888 28.3473 17.8379 28.5019 17.8379H29.7727C29.9378 17.8379 30.0835 17.9463 30.1311 18.1043L30.8871 20.6289L32.6709 18.0018C32.7407 17.8992 32.8567 17.8379 32.98 17.8379Z" fill="#253B80"/>
<path fill-rule="evenodd" clip-rule="evenodd" d="M47.0026 22.5575L48.1055 15.5408C48.1225 15.4318 48.2168 15.3517 48.3265 15.3513H49.5682C49.7053 15.3513 49.8106 15.4742 49.789 15.6102L48.7013 22.5006C48.6729 22.6824 48.5165 22.8161 48.3323 22.8161H47.2234C47.0863 22.8161 46.981 22.6935 47.0026 22.5575ZM38.5557 15.3517H35.8677C35.6842 15.3517 35.5278 15.4853 35.4991 15.6668L34.4121 22.5575C34.3905 22.6935 34.4958 22.8161 34.6331 22.8161H36.0123C36.1405 22.8161 36.2501 22.7226 36.2701 22.5953L36.5785 20.6421C36.6069 20.4601 36.7637 20.3266 36.9472 20.3266H37.7975C39.5682 20.3266 40.5897 19.47 40.8568 17.7726C40.9774 17.03 40.8616 16.4465 40.5139 16.0377C40.1322 15.5891 39.4551 15.3517 38.5557 15.3517ZM38.8657 17.8684C38.7191 18.8327 37.9823 18.8327 37.2694 18.8327H36.8642L37.1492 17.0318C37.1661 16.9231 37.2596 16.8429 37.37 16.8429H37.5558C38.0408 16.8429 38.4991 16.8429 38.7355 17.1194C38.8766 17.2845 38.9196 17.5297 38.8657 17.8684ZM46.5885 17.8375H45.3024C45.1919 17.8375 45.098 17.9177 45.0815 18.0266L45.0246 18.3865L44.9342 18.2561C44.6556 17.8517 44.0347 17.7166 43.4146 17.7166C41.9923 17.7166 40.7781 18.7936 40.5415 20.3044C40.4189 21.0579 40.593 21.7785 41.0205 22.2811C41.4135 22.7432 41.974 22.9357 42.6416 22.9357C43.7874 22.9357 44.4228 22.1989 44.4228 22.1989L44.3655 22.5566C44.3439 22.6933 44.4492 22.8159 44.5872 22.8159H45.746C45.9295 22.8159 46.0859 22.6822 46.1146 22.5004L46.8106 18.0961C46.8318 17.9606 46.7265 17.8375 46.5885 17.8375ZM44.7947 20.3421C44.6712 21.0772 44.0869 21.5707 43.3426 21.5707C42.9696 21.5707 42.6703 21.4509 42.4784 21.2238C42.2882 20.9983 42.2167 20.6772 42.2766 20.3197C42.3931 19.5907 42.9858 19.0812 43.7187 19.0812C44.0842 19.0812 44.3812 19.2025 44.577 19.4316C44.7738 19.6631 44.8516 19.986 44.7947 20.3421Z" fill="#179BD7"/>
</g>
</g>
<defs>
<filter id="filter0_dd_0_51" x="-3.57628e-07" y="1.19209e-07" width="64.9911" height="48.4071" filterUnits="userSpaceOnUse" color-interpolation-filters="sRGB">
<feFlood flood-opacity="0" result="BackgroundImageFix"/>
<feColorMatrix in="SourceAlpha" type="matrix" values="0 0 0 0 0 0 0 0 0 0 0 0 0 0 0 0 0 0 127 0" result="hardAlpha"/>
<feOffset dy="0.448214"/>
<feGaussianBlur stdDeviation="2.24107"/>
<feColorMatrix type="matrix" values="0 0 0 0 0.717647 0 0 0 0 0.717647 0 0 0 0 0.717647 0 0 0 0.08 0"/>
<feBlend mode="normal" in2="BackgroundImageFix" result="effect1_dropShadow_0_51"/>
<feColorMatrix in="SourceAlpha" type="matrix" values="0 0 0 0 0 0 0 0 0 0 0 0 0 0 0 0 0 0 127 0" result="hardAlpha"/>
<feOffset dy="4.48214"/>
<feGaussianBlur stdDeviation="4.48214"/>
<feColorMatrix type="matrix" values="0 0 0 0 0.717647 0 0 0 0 0.717647 0 0 0 0 0.717647 0 0 0 0.08 0"/>
<feBlend mode="normal" in2="effect1_dropShadow_0_51" result="effect2_dropShadow_0_51"/>
<feBlend mode="normal" in="SourceGraphic" in2="effect2_dropShadow_0_51" result="shape"/>
</filter>
</defs>
</svg>
